<svg baseProfile="tiny" xmlns="http://www.w3.org/2000/svg" width="1600" height="1200" viewBox="0 0 1600 1200" overflow="scroll"><path fill="#1C75BC" d="M0 0h1600v1200H0z"/><g fill="#E6E7E8"><path d="M488.7 603.9c-16.4 18.5-24.5 30.4-24.5 33.9 0 1.6 7.5-2.4 7-1.9-3.1 4.1-9.7 6.1-12.2 6.1-2.1 0-4.1-2.2-4.1-4.6 0-15.9 63.6-91.1 63.6-108.7 0-5.8-5.7-6.8-10.3-6.8-34.8 0-92 58.4-92 66.2 0 1.5 1.4 2.2 2.5 2.2 1.2 0 4.8-.6 6.1-1 0 1.1-7.5 4.1-10.3 4.1-4 0-6.6-3.1-6.6-6.8 0-20 63.2-67.8 100.4-67.8 11.8 0 18.1 6 18.1 16.1 0 11.8-20.6 41.7-37.1 64.1 35.8-40.1 67.5-62.7 73-62.7 4 0 10.4 3.9 11.1 8.8-.5-.7-1.9-1-2.7-1-5 0-36.3 45.5-49.2 73.3 25.3-42.5 83.1-86.6 91.4-86.6 4.2 0 10.1 6.6 10.6 9.4-1.1-.7-2.9-.7-4-.7-11.2 0-61.5 63.4-61.5 91.8 0 11.9 5.2 16.8 18.5 16.4 11.8-.4 29.9-8.6 38.5-14.5-14.8 13.7-34.5 17.4-38.9 17.9-1.4.1-2.6.2-3.9.2-13.2 0-22.2-8.3-22.2-22.6 0-24 24.5-61 35-71.3-17.9 8.2-65.8 59.1-65.8 71.4 0 2.4-8.6-1.9-8.6-7 0-12.5 28.7-61.2 38.1-70.4-17.2 9.3-42.2 32.9-60 52.5z"/><path d="M582.9 624.2c-2-.6-5.1-3.7-5.1-6 0-7.2 18-34.3 26-40.6.6-.6 1.4-.7 1.9-.7 2.9 0 7.8 5 7.8 8.1 0 .5-.6-.1-1.6-.2-5.1-.5-22.1 27.8-23.6 32.9 7.6-2 25.7-19.3 33.3-26.6.9-.6 1.5.4 1.1.7-10.8 11.7-30.6 31.9-38.3 32.5-.5 0-.9 0-1.5-.1zm41.5-62.3c1.1 1.2 1.9 3.1 1.4 3.1-.2 0-1.2-.5-2.6.1-2.1.9-7.8 6-9.3 8.1-1.7 2.2-4.3-.4-4.5-2.6-.1-3.6 4.6-11.7 7.8-12.7 2.8-.4 5.6 2.1 7.2 4z"/><path d="M621.4 619c11.4-1.2 32.3-18 44.3-27.8.4-.2 1.2.2.9.6-10.7 10.1-34.7 32.5-50.1 32.5-4 0-8.4-3.7-9.1-7.7-.1-1-.1-2.2.2-3.7 1-5.2 5.5-13.9 13.8-22 10.2-10.1 22.7-16.5 31.6-16.5 2.9 0 7.1 4.2 7.1 6.1 0 4.7-6.1 9.3-10.2 12.4-.2.2-.9 0-.6-.4 2-2 7.1-11.8 6.1-12.7-13.3.2-37.6 28.3-37.6 37 0 2.1 2.5 2.3 3.6 2.2z"/><path d="M666.4 605.1c14.2-15 35.5-29.9 39.7-29.9 2.9 0 6.8 6.7 5.3 8.1-3.2 2.5-22.2 28.7-22.6 34.5 7.7-2.1 25.3-19.4 33.2-26.7.9-.6 1.5.4 1.1.7-8.9 9.6-23.7 25.1-33 30.6-1 .6-2.9 1.5-4.2 1.9-.5.1-1 .2-1.9 0-2.5-.9-5.3-5.2-5.3-7.5 0-7.1 13.3-27 19.8-32.8-7.3 3.4-17.9 10.9-26.8 19.4-1.2 1.1-6.2 6.3-6.2 6.3-3.7 4-6.5 7.7-7.7 10.7-1.1 2.5-.9 4.2 2 4.6-1.5.6-2.9.1-4.1-.6-.9-.4-3.6-3-4.5-5-.4-1-.1-5 3.6-13.2 6.6-15 23.5-39.4 35.2-54.9 3.4-4.6 9.7-12.2 15-16.6 2-1.5 3.7-2.2 4.7-2.2 7 0 11.8 7.3 9.4 6-2.5-1.2-6.2 1.4-10.9 6.7-12.3 13.7-31.8 39.9-41.8 59.9z"/><path d="M743.1 599.8c-3.7 3.7-27.9 24.6-33.2 24.6-.2 0-.9-.2-1.1-.4-2.2-1.1-5.5-5.8-5.5-8.3 0-13.5 28.4-41.2 51.3-41.2 4.7 0 10.9 2 10.9 7.8 0 2.1-1.1 4.2-2.4 5.8-.2.1-.5 0-.4-.1.6-1.1 1.4-2.6 1.4-4.5 0-3.7-2.4-5.6-6.1-5.3-7.2.4-16.3 5.6-24.3 12.4-11.8 10.1-21.1 25.7-20 26.3.2.1.5.1.9 0 4.1-1.4 21.5-13.9 27.9-19.4 2.2-2 10.3-9.8 13.4-11.6 2.5-1.2 6.7 5.6 6.2 7.1-.6-1.2-11.8 12.3-15.5 20.2-.7 1.7-1.2 3.2-1.2 4.2 7.8-2.2 25.6-19.3 33.3-26.5.6-.6 1.2.4.9.7-10.8 11.8-31.1 32.5-38.5 32.5-.6 0-1.2-.2-2.1-.7-1.7-1-4.1-3.6-4.1-5.8 0-1.2.5-2.7 1-4.6 1.5-4.4 4.9-10.1 7.2-13.2z"/><path d="M773.2 616.5c-.1 1.5 1 2.4 3.7 2.4 9.1 0 31.8-17.3 44.3-27.7.4-.2 1.2.4.9.7-9.3 8.7-34 32.4-50.6 32.4-3.9 0-8.8-4.5-8.8-7.8 0-3 .7-5.5 1.7-8.2 3-7.1 9.3-14.9 17.1-21.5 10.3-8.6 21.4-12.4 26.7-12.4 1.9 0 7.6 2.9 7.6 6.3 0 7.7-23.9 25.6-37.8 26-2.1 2.6-4.4 6.6-4.8 9.8zm6.6-12.3c10.8-1.2 31.4-21.4 32.2-26.1-13.8 4.5-28.1 19.5-32.2 26.1z"/><path d="M849.9 546c3.7-4.8 7.2-8.8 10.3-11.3 1.9-1.5 3.5-2.5 4.6-2.5 7-.4 11.9 6.8 9.6 5.5-4.3-2-12.4 9.7-17.9 16.4-5.3 6.8-10.4 14.2-16.6 23.2-10.8 16.4-20.1 32.2-23.1 40.1 5.3.6 26-19.6 33.3-26.3.7-.6 1.2.4.9.7-6.1 7-27.7 29.6-35.2 32.3-1.6.6-2.9.1-4-.5-1-.5-3.7-3.1-4.5-5-.1-.2-.4-.5-.4-1.9 0-3.7 5.7-15.8 20.9-39.5 7.7-12 15.7-22.8 22.1-31.2zm155.6-20.5c-2.4-.1-4.8-.1-7.2-.1-64.1 0-109.9 27-111.9 43.6-1 8 12.4 12.3 13.4 12.8 0 0-.1.1-.5.1-8.3-.1-22.5-4-22.2-14.9.7-26.8 58-46.6 115-46.6 2.7 0 5.3 0 8.1.1 26.2.9 51.8 7.5 61.4 12.7 1.7.9.7 1.6-.6 1.1-2.2-1-25.5-7.8-55.5-8.8zm-52.8 32c5.8-7.3 10.6-12.3 14-15.7 3.6-3.5 6.5-5.6 8.7-5.6 4.5 0 9.7 3.5 10.8 8.7-.9-1.1-2-1.5-3-1.5-2.9 0-8.3 4.5-15.3 12.7-21.1 25.1-56 78.4-55 86.6 2.9-.1 5.7-1.2 9.4-3.6-.2 2.4-8.8 8.6-12.2 8.7-2.1.1-4.3-1.2-4.6-4.7-.8-11.8 25.8-58.3 47.2-85.6zm6.7 59c-.1 1.5 1 2.4 3.7 2.4 9.1 0 31.8-17.3 44.3-27.7.4-.2 1.2.4.9.7-9.3 8.7-34 32.4-50.6 32.4-3.9 0-8.8-4.5-8.8-7.8 0-3 .7-5.5 1.7-8.2 3-7.1 9.3-14.9 17.1-21.5 10.3-8.6 21.4-12.4 26.7-12.4 1.9 0 7.6 2.9 7.6 6.3 0 7.7-23.8 25.6-37.8 26-2.1 2.6-4.4 6.6-4.8 9.8zm6.6-12.3c10.8-1.2 31.4-21.4 32.2-26.1-13.8 4.5-28.1 19.5-32.2 26.1z"/><path d="M1030.3 599.8c-3.7 3.7-27.9 24.6-33.2 24.6-.2 0-.9-.2-1.1-.4-2.2-1.1-5.5-5.8-5.5-8.3 0-13.5 28.4-41.2 51.3-41.2 4.7 0 10.9 2 10.9 7.8 0 2.1-1.1 4.2-2.4 5.8-.2.1-.5 0-.4-.1.6-1.1 1.4-2.6 1.4-4.5 0-3.7-2.4-5.6-6.1-5.3-7.2.4-16.3 5.6-24.3 12.4-11.8 10.1-21.1 25.7-20 26.3.2.1.5.1.9 0 4.1-1.4 21.5-13.9 27.9-19.4 2.2-2 10.3-9.8 13.4-11.6 2.5-1.2 6.7 5.6 6.2 7.1-.6-1.2-11.8 12.3-15.5 20.2-.7 1.7-1.2 3.2-1.2 4.2 7.8-2.2 25.6-19.3 33.3-26.5.6-.6 1.2.4.9.7-10.8 11.8-31.1 32.5-38.5 32.5-.6 0-1.2-.2-2.1-.7-1.7-1-4.1-3.6-4.1-5.8 0-1.2.5-2.7 1-4.6 1.5-4.4 4.9-10.1 7.2-13.2z"/><path d="M1095.4 613c2.7-1 5.5-2 8.2-2.9 2-.6 4-.2 2.2.4-4 1.6-7.9 3.4-11.8 5-15.9 27.7-36.4 58.9-60.2 65.2-1.4.4-2.7.5-4.1.5-4.6 0-8.4-2.1-8.4-7.3 0-1.4.2-3 .9-4.8 5-15.8 29.4-35.9 58-49.6 2.7-4.7 13.2-23.5 13.2-23.5.1-.1-3 2.1-5.3 4.2-1.9 1.7-8.7 7.8-15.7 13.3-7.1 5.5-14.4 10.8-17 10.8-.2 0-.9-.1-1.2-.4-2.2-1.4-5.3-5.8-5.3-8.3 0-13.5 28.6-41.2 51.3-41.2 4.8 0 11.1 2 11.1 7.8 0 2.1-1.2 4.2-2.4 5.8-.2.1-.4 0-.2-.1.5-1.1 1.2-2.6 1.2-4.5 0-3.7-2.4-5.6-6.1-5.3-7.2.4-16.1 5.6-24.3 12.4-11.8 10.1-20.9 25.3-19.6 26.3.5.5 5.5-2.7 10.9-6.3 6-4 11.8-8.6 15.9-12 8.6-7.2 10.4-9.1 12.5-10.1 2.4-1.1 7.6 5.6 7.1 7.1-.4-.4-1-.7-3.1 3.5l-7.8 14zm-17.5 10.4c-22.6 11.9-39.9 26.1-48.6 42.2-1.4 2.5-2 4.2-2 5.5 0 1.7 1.1 2.4 2.7 2.4 1.7 0 3.9-.7 5.8-1.7 14.6-8 29.4-28 42.1-48.4z"/><path d="M1147 546c3.7-4.8 7.2-8.8 10.3-11.3 1.9-1.5 3.5-2.5 4.6-2.5 7-.4 11.9 6.8 9.6 5.5-4.3-2-12.4 9.7-17.9 16.4-5.3 6.8-10.4 14.2-16.6 23.2-10.8 16.4-20.1 32.2-23.1 40.1 5.3.6 26-19.6 33.3-26.3.7-.6 1.2.4.9.7-6.1 7-27.7 29.6-35.2 32.3-1.6.6-2.9.1-4-.5-1-.5-3.7-3.1-4.5-5-.1-.2-.4-.5-.4-1.9 0-3.7 5.7-15.8 20.9-39.5 7.6-12 15.6-22.8 22.1-31.2z"/><path d="M1143.1 616.5c-.1 1.5 1 2.4 3.7 2.4 9.1 0 31.8-17.3 44.3-27.7.4-.2 1.2.4.9.7-9.3 8.7-34 32.4-50.6 32.4-3.9 0-8.8-4.5-8.8-7.8 0-3 .7-5.5 1.7-8.2 3-7.1 9.3-14.9 17.1-21.5 10.3-8.6 21.4-12.4 26.7-12.4 1.9 0 7.6 2.9 7.6 6.3 0 7.7-23.8 25.6-37.8 26-2.1 2.6-4.4 6.6-4.8 9.8zm6.6-12.3c10.8-1.2 31.4-21.4 32.2-26.1-13.8 4.5-28.1 19.5-32.2 26.1z"/></g></svg>