<?xml version="1.0" encoding="utf-8"?>
<!-- Generator: Adobe Illustrator 17.0.0, SVG Export Plug-In . SVG Version: 6.00 Build 0)  -->
<!DOCTYPE svg PUBLIC "-//W3C//DTD SVG 1.1 Tiny//EN" "http://www.w3.org/Graphics/SVG/1.1/DTD/svg11-tiny.dtd">
<svg version="1.1" baseProfile="tiny" id="Layer_1" xmlns="http://www.w3.org/2000/svg" xmlns:xlink="http://www.w3.org/1999/xlink"
	 x="0px" y="0px" width="1600px" height="1200px" viewBox="0 0 1600 1200" overflow="scroll" xml:space="preserve">
<rect fill="#1C75BC" width="1600" height="1200"/>
<g>
	<path fill="#E6E7E8" d="M488.7,603.9c-16.4,18.5-24.5,30.4-24.5,33.9c0,1.6,7.5-2.4,7-1.9c-3.1,4.1-9.7,6.1-12.2,6.1
		c-2.1,0-4.1-2.2-4.1-4.6c0-15.9,63.6-91.1,63.6-108.7c0-5.8-5.7-6.8-10.3-6.8c-34.8,0-92,58.4-92,66.2c0,1.5,1.4,2.2,2.5,2.2
		c1.2,0,4.8-0.6,6.1-1c0,1.1-7.5,4.1-10.3,4.1c-4,0-6.6-3.1-6.6-6.8c0-20,63.2-67.8,100.4-67.8c11.8,0,18.1,6,18.1,16.1
		c0,11.8-20.6,41.7-37.1,64.1c35.8-40.1,67.5-62.7,73-62.7c4,0,10.4,3.9,11.1,8.8c-0.5-0.7-1.9-1-2.7-1c-5,0-36.3,45.5-49.2,73.3
		c25.3-42.5,83.1-86.6,91.4-86.6c4.2,0,10.1,6.6,10.6,9.4c-1.1-0.7-2.9-0.7-4-0.7c-11.2,0-61.5,63.4-61.5,91.8
		c0,11.9,5.2,16.8,18.5,16.4c11.8-0.4,29.9-8.6,38.5-14.5c-14.8,13.7-34.5,17.4-38.9,17.9c-1.4,0.1-2.6,0.2-3.9,0.2
		c-13.2,0-22.2-8.3-22.2-22.6c0-24,24.5-61,35-71.3c-17.9,8.2-65.8,59.1-65.8,71.4c0,2.4-8.6-1.9-8.6-7c0-12.5,28.7-61.2,38.1-70.4
		C531.5,560.7,506.5,584.3,488.7,603.9z"/>
	<path fill="#E6E7E8" d="M582.9,624.2c-2-0.6-5.1-3.7-5.1-6c0-7.2,18-34.3,26-40.6c0.6-0.6,1.4-0.7,1.9-0.7c2.9,0,7.8,5,7.8,8.1
		c0,0.5-0.6-0.1-1.6-0.2c-5.1-0.5-22.1,27.8-23.6,32.9c7.6-2,25.7-19.3,33.3-26.6c0.9-0.6,1.5,0.4,1.1,0.7
		c-10.8,11.7-30.6,31.9-38.3,32.5C583.9,624.3,583.5,624.3,582.9,624.2z M624.4,561.9c1.1,1.2,1.9,3.1,1.4,3.1
		c-0.2,0-1.2-0.5-2.6,0.1c-2.1,0.9-7.8,6-9.3,8.1c-1.7,2.2-4.3-0.4-4.5-2.6c-0.1-3.6,4.6-11.7,7.8-12.7
		C620,557.5,622.8,560,624.4,561.9z"/>
	<path fill="#E6E7E8" d="M621.4,619c11.4-1.2,32.3-18,44.3-27.8c0.4-0.2,1.2,0.2,0.9,0.6c-10.7,10.1-34.7,32.5-50.1,32.5
		c-4,0-8.4-3.7-9.1-7.7c-0.1-1-0.1-2.2,0.2-3.7c1-5.2,5.5-13.9,13.8-22c10.2-10.1,22.7-16.5,31.6-16.5c2.9,0,7.1,4.2,7.1,6.1
		c0,4.7-6.1,9.3-10.2,12.4c-0.2,0.2-0.9,0-0.6-0.4c2-2,7.1-11.8,6.1-12.7c-13.3,0.2-37.6,28.3-37.6,37
		C617.8,618.9,620.3,619.1,621.4,619z"/>
	<path fill="#E6E7E8" d="M666.4,605.1c14.2-15,35.5-29.9,39.7-29.9c2.9,0,6.8,6.7,5.3,8.1c-3.2,2.5-22.2,28.7-22.6,34.5
		c7.7-2.1,25.3-19.4,33.2-26.7c0.9-0.6,1.5,0.4,1.1,0.7c-8.9,9.6-23.7,25.1-33,30.6c-1,0.6-2.9,1.5-4.2,1.9c-0.5,0.1-1,0.2-1.9,0
		c-2.5-0.9-5.3-5.2-5.3-7.5c0-7.1,13.3-27,19.8-32.8c-7.3,3.4-17.9,10.9-26.8,19.4c-1.2,1.1-6.2,6.3-6.2,6.3
		c-3.7,4-6.5,7.7-7.7,10.7c-1.1,2.5-0.9,4.2,2,4.6c-1.5,0.6-2.9,0.1-4.1-0.6c-0.9-0.4-3.6-3-4.5-5c-0.4-1-0.1-5,3.6-13.2
		c6.6-15,23.5-39.4,35.2-54.9c3.4-4.6,9.7-12.2,15-16.6c2-1.5,3.7-2.2,4.7-2.2c7,0,11.8,7.3,9.4,6c-2.5-1.2-6.2,1.4-10.9,6.7
		C695.9,558.9,676.4,585.1,666.4,605.1z"/>
	<path fill="#E6E7E8" d="M743.1,599.8c-3.7,3.7-27.9,24.6-33.2,24.6c-0.2,0-0.9-0.2-1.1-0.4c-2.2-1.1-5.5-5.8-5.5-8.3
		c0-13.5,28.4-41.2,51.3-41.2c4.7,0,10.9,2,10.9,7.8c0,2.1-1.1,4.2-2.4,5.8c-0.2,0.1-0.5,0-0.4-0.1c0.6-1.1,1.4-2.6,1.4-4.5
		c0-3.7-2.4-5.6-6.1-5.3c-7.2,0.4-16.3,5.6-24.3,12.4c-11.8,10.1-21.1,25.7-20,26.3c0.2,0.1,0.5,0.1,0.9,0
		c4.1-1.4,21.5-13.9,27.9-19.4c2.2-2,10.3-9.8,13.4-11.6c2.5-1.2,6.7,5.6,6.2,7.1c-0.6-1.2-11.8,12.3-15.5,20.2
		c-0.7,1.7-1.2,3.2-1.2,4.2c7.8-2.2,25.6-19.3,33.3-26.5c0.6-0.6,1.2,0.4,0.9,0.7c-10.8,11.8-31.1,32.5-38.5,32.5
		c-0.6,0-1.2-0.2-2.1-0.7c-1.7-1-4.1-3.6-4.1-5.8c0-1.2,0.5-2.7,1-4.6C737.4,608.6,740.8,602.9,743.1,599.8z"/>
	<path fill="#E6E7E8" d="M773.2,616.5c-0.1,1.5,1,2.4,3.7,2.4c9.1,0,31.8-17.3,44.3-27.7c0.4-0.2,1.2,0.4,0.9,0.7
		c-9.3,8.7-34,32.4-50.6,32.4c-3.9,0-8.8-4.5-8.8-7.8c0-3,0.7-5.5,1.7-8.2c3-7.1,9.3-14.9,17.1-21.5c10.3-8.6,21.4-12.4,26.7-12.4
		c1.9,0,7.6,2.9,7.6,6.3c0,7.7-23.9,25.6-37.8,26C775.9,609.3,773.6,613.3,773.2,616.5z M779.8,604.2c10.8-1.2,31.4-21.4,32.2-26.1
		C798.2,582.6,783.9,597.6,779.8,604.2z"/>
	<path fill="#E6E7E8" d="M849.9,546c3.7-4.8,7.2-8.8,10.3-11.3c1.9-1.5,3.5-2.5,4.6-2.5c7-0.4,11.9,6.8,9.6,5.5
		c-4.3-2-12.4,9.7-17.9,16.4c-5.3,6.8-10.4,14.2-16.6,23.2c-10.8,16.4-20.1,32.2-23.1,40.1c5.3,0.6,26-19.6,33.3-26.3
		c0.7-0.6,1.2,0.4,0.9,0.7c-6.1,7-27.7,29.6-35.2,32.3c-1.6,0.6-2.9,0.1-4-0.5c-1-0.5-3.7-3.1-4.5-5c-0.1-0.2-0.4-0.5-0.4-1.9
		c0-3.7,5.7-15.8,20.9-39.5C835.5,565.2,843.5,554.4,849.9,546z"/>
	<path fill="#E6E7E8" d="M1005.5,525.5c-2.4-0.1-4.8-0.1-7.2-0.1c-64.1,0-109.9,27-111.9,43.6c-1,8,12.4,12.3,13.4,12.8
		c0,0-0.1,0.1-0.5,0.1c-8.3-0.1-22.5-4-22.2-14.9c0.7-26.8,58-46.6,115-46.6c2.7,0,5.3,0,8.1,0.1c26.2,0.9,51.8,7.5,61.4,12.7
		c1.7,0.9,0.7,1.6-0.6,1.1C1058.8,533.3,1035.5,526.5,1005.5,525.5z M952.7,557.5c5.8-7.3,10.6-12.3,14-15.7
		c3.6-3.5,6.5-5.6,8.7-5.6c4.5,0,9.7,3.5,10.8,8.7c-0.9-1.1-2-1.5-3-1.5c-2.9,0-8.3,4.5-15.3,12.7c-21.1,25.1-56,78.4-55,86.6
		c2.9-0.1,5.7-1.2,9.4-3.6c-0.2,2.4-8.8,8.6-12.2,8.7c-2.1,0.1-4.3-1.2-4.6-4.7C904.7,631.3,931.3,584.8,952.7,557.5z"/>
	<path fill="#E6E7E8" d="M959.4,616.5c-0.1,1.5,1,2.4,3.7,2.4c9.1,0,31.8-17.3,44.3-27.7c0.4-0.2,1.2,0.4,0.9,0.7
		c-9.3,8.7-34,32.4-50.6,32.4c-3.9,0-8.8-4.5-8.8-7.8c0-3,0.7-5.5,1.7-8.2c3-7.1,9.3-14.9,17.1-21.5c10.3-8.6,21.4-12.4,26.7-12.4
		c1.9,0,7.6,2.9,7.6,6.3c0,7.7-23.8,25.6-37.8,26C962.1,609.3,959.8,613.3,959.4,616.5z M966,604.2c10.8-1.2,31.4-21.4,32.2-26.1
		C984.4,582.6,970.1,597.6,966,604.2z"/>
	<path fill="#E6E7E8" d="M1030.3,599.8c-3.7,3.7-27.9,24.6-33.2,24.6c-0.2,0-0.9-0.2-1.1-0.4c-2.2-1.1-5.5-5.8-5.5-8.3
		c0-13.5,28.4-41.2,51.3-41.2c4.7,0,10.9,2,10.9,7.8c0,2.1-1.1,4.2-2.4,5.8c-0.2,0.1-0.5,0-0.4-0.1c0.6-1.1,1.4-2.6,1.4-4.5
		c0-3.7-2.4-5.6-6.1-5.3c-7.2,0.4-16.3,5.6-24.3,12.4c-11.8,10.1-21.1,25.7-20,26.3c0.2,0.1,0.5,0.1,0.9,0
		c4.1-1.4,21.5-13.9,27.9-19.4c2.2-2,10.3-9.8,13.4-11.6c2.5-1.2,6.7,5.6,6.2,7.1c-0.6-1.2-11.8,12.3-15.5,20.2
		c-0.7,1.7-1.2,3.2-1.2,4.2c7.8-2.2,25.6-19.3,33.3-26.5c0.6-0.6,1.2,0.4,0.9,0.7c-10.8,11.8-31.1,32.5-38.5,32.5
		c-0.6,0-1.2-0.2-2.1-0.7c-1.7-1-4.1-3.6-4.1-5.8c0-1.2,0.5-2.7,1-4.6C1024.6,608.6,1028,602.9,1030.3,599.8z"/>
	<path fill="#E6E7E8" d="M1095.4,613c2.7-1,5.5-2,8.2-2.9c2-0.6,4-0.2,2.2,0.4c-4,1.6-7.9,3.4-11.8,5
		c-15.9,27.7-36.4,58.9-60.2,65.2c-1.4,0.4-2.7,0.5-4.1,0.5c-4.6,0-8.4-2.1-8.4-7.3c0-1.4,0.2-3,0.9-4.8c5-15.8,29.4-35.9,58-49.6
		c2.7-4.7,13.2-23.5,13.2-23.5c0.1-0.1-3,2.1-5.3,4.2c-1.9,1.7-8.7,7.8-15.7,13.3c-7.1,5.5-14.4,10.8-17,10.8
		c-0.2,0-0.9-0.1-1.2-0.4c-2.2-1.4-5.3-5.8-5.3-8.3c0-13.5,28.6-41.2,51.3-41.2c4.8,0,11.1,2,11.1,7.8c0,2.1-1.2,4.2-2.4,5.8
		c-0.2,0.1-0.4,0-0.2-0.1c0.5-1.1,1.2-2.6,1.2-4.5c0-3.7-2.4-5.6-6.1-5.3c-7.2,0.4-16.1,5.6-24.3,12.4
		c-11.8,10.1-20.9,25.3-19.6,26.3c0.5,0.5,5.5-2.7,10.9-6.3c6-4,11.8-8.6,15.9-12c8.6-7.2,10.4-9.1,12.5-10.1
		c2.4-1.1,7.6,5.6,7.1,7.1c-0.4-0.4-1-0.7-3.1,3.5L1095.4,613z M1077.9,623.4c-22.6,11.9-39.9,26.1-48.6,42.2c-1.4,2.5-2,4.2-2,5.5
		c0,1.7,1.1,2.4,2.7,2.4c1.7,0,3.9-0.7,5.8-1.7C1050.4,663.8,1065.2,643.8,1077.9,623.4z"/>
	<path fill="#E6E7E8" d="M1147,546c3.7-4.8,7.2-8.8,10.3-11.3c1.9-1.5,3.5-2.5,4.6-2.5c7-0.4,11.9,6.8,9.6,5.5
		c-4.3-2-12.4,9.7-17.9,16.4c-5.3,6.8-10.4,14.2-16.6,23.2c-10.8,16.4-20.1,32.2-23.1,40.1c5.3,0.6,26-19.6,33.3-26.3
		c0.7-0.6,1.2,0.4,0.9,0.7c-6.1,7-27.7,29.6-35.2,32.3c-1.6,0.6-2.9,0.1-4-0.5c-1-0.5-3.7-3.1-4.5-5c-0.1-0.2-0.4-0.5-0.4-1.9
		c0-3.7,5.7-15.8,20.9-39.5C1132.5,565.2,1140.5,554.4,1147,546z"/>
	<path fill="#E6E7E8" d="M1143.1,616.5c-0.1,1.5,1,2.4,3.7,2.4c9.1,0,31.8-17.3,44.3-27.7c0.4-0.2,1.2,0.4,0.9,0.7
		c-9.3,8.7-34,32.4-50.6,32.4c-3.9,0-8.8-4.5-8.8-7.8c0-3,0.7-5.5,1.7-8.2c3-7.1,9.3-14.9,17.1-21.5c10.3-8.6,21.4-12.4,26.7-12.4
		c1.9,0,7.6,2.9,7.6,6.3c0,7.7-23.8,25.6-37.8,26C1145.8,609.3,1143.5,613.3,1143.1,616.5z M1149.7,604.2
		c10.8-1.2,31.4-21.4,32.2-26.1C1168.1,582.6,1153.8,597.6,1149.7,604.2z"/>
</g>
</svg>
