<svg id="Layer_1" data-name="Layer 1" xmlns="http://www.w3.org/2000/svg" viewBox="0 0 784.27 162.48"><defs><style>.cls-1{fill:#e6e7e8;}</style></defs><title>MT5</title><path class="cls-1" d="M99.73,110.85c-16.4,18.51-24.47,30.43-24.47,33.91,0,1.61,7.45-2.36,7-1.86C79.11,147,72.53,149,70,149c-2.11,0-4.1-2.24-4.1-4.6,0-15.9,63.6-91.05,63.6-108.69,0-5.84-5.71-6.83-10.31-6.83-34.78,0-92,58.38-92,66.21a2.35,2.35,0,0,0,2.48,2.24,34.53,34.53,0,0,0,6.09-1c0,1.12-7.45,4.1-10.31,4.1a6.53,6.53,0,0,1-6.58-6.83c0-20,63.23-67.82,100.37-67.82,11.8,0,18.14,6,18.14,16.15,0,11.8-20.62,41.74-37.14,64.1,35.77-40.12,67.45-62.73,73-62.73,4,0,10.43,3.85,11.06,8.82a3.56,3.56,0,0,0-2.73-1c-5,0-36.27,45.46-49.19,73.29,25.34-42.48,83.1-86.58,91.42-86.58,4.22,0,10.06,6.58,10.56,9.44a7.58,7.58,0,0,0-4-.74c-11.18,0-61.49,63.35-61.49,91.8,0,11.92,5.22,16.77,18.51,16.4,11.8-.37,29.94-8.57,38.51-14.53-14.78,13.66-34.53,17.39-38.88,17.89-1.37.12-2.61.25-3.85.25C170,158.3,161,150,161,135.69c0-24,24.47-61,35-71.3-17.89,8.2-65.84,59.13-65.84,71.43,0,2.36-8.57-1.86-8.57-7,0-12.55,28.69-61.24,38.14-70.43C142.46,67.75,117.5,91.35,99.73,110.85Z" transform="translate(-18.87 -25.76)"/><path class="cls-1" d="M193.89,131.22c-2-.62-5.09-3.73-5.09-6,0-7.2,18-34.28,26-40.62a2.59,2.59,0,0,1,1.86-.74c2.86,0,7.83,5,7.83,8.07,0,.5-.62-.12-1.62-.25-5.09-.5-22.11,27.82-23.6,32.92,7.58-2,25.71-19.25,33.29-26.58.87-.62,1.49.37,1.12.75-10.81,11.68-30.56,31.92-38.26,32.54A6.58,6.58,0,0,1,193.89,131.22Zm41.49-62.36c1.12,1.24,1.86,3.11,1.37,3.11a3.7,3.7,0,0,0-2.61.12c-2.11.87-7.83,6-9.32,8.07-1.74,2.24-4.35-.37-4.47-2.61-.12-3.6,4.6-11.68,7.83-12.67C231,64.52,233.76,67,235.38,68.87Z" transform="translate(-18.87 -25.76)"/><path class="cls-1" d="M232.39,126c11.43-1.24,32.3-18,44.35-27.82.37-.25,1.24.25.87.62-10.68,10.06-34.66,32.54-50.06,32.54-4,0-8.45-3.73-9.07-7.7a10,10,0,0,1,.25-3.73c1-5.22,5.47-13.91,13.79-22,10.19-10.06,22.73-16.52,31.55-16.52,2.86,0,7.08,4.22,7.08,6.09,0,4.72-6.09,9.32-10.19,12.42-.25.25-.87,0-.62-.37,2-2,7.08-11.8,6.09-12.67-13.29.25-37.64,28.32-37.64,37C228.79,125.88,231.28,126.13,232.39,126Z" transform="translate(-18.87 -25.76)"/><path class="cls-1" d="M277.36,112.09c14.16-15,35.53-29.94,39.75-29.94,2.86,0,6.83,6.71,5.34,8.07-3.23,2.48-22.23,28.69-22.61,34.53,7.7-2.11,25.34-19.38,33.17-26.71.87-.62,1.49.37,1.12.75-8.94,9.57-23.73,25.09-33,30.56a18.85,18.85,0,0,1-4.22,1.86,3.11,3.11,0,0,1-1.86,0c-2.48-.87-5.34-5.22-5.34-7.45,0-7.08,13.29-27,19.75-32.79-7.33,3.35-17.89,10.93-26.83,19.38-1.24,1.12-6.21,6.33-6.21,6.33-3.73,4-6.46,7.7-7.7,10.68-1.12,2.48-.87,4.22,2,4.6a4.39,4.39,0,0,1-4.1-.62,13.75,13.75,0,0,1-4.47-5c-.37-1-.12-5,3.6-13.17,6.58-15,23.48-39.38,35.15-54.91,3.35-4.6,9.69-12.17,15-16.64,2-1.49,3.73-2.24,4.72-2.24,7,0,11.8,7.33,9.44,6s-6.21,1.37-10.93,6.71C306.92,65.88,287.42,92.09,277.36,112.09Z" transform="translate(-18.87 -25.76)"/><path class="cls-1" d="M354.12,106.75c-3.73,3.73-27.95,24.59-33.17,24.59a4,4,0,0,1-1.12-.37c-2.24-1.12-5.47-5.84-5.47-8.32,0-13.54,28.45-41.24,51.3-41.24,4.72,0,10.93,2,10.93,7.83a10.13,10.13,0,0,1-2.36,5.84c-.25.12-.5,0-.37-.12a9.07,9.07,0,0,0,1.37-4.47c0-3.73-2.36-5.59-6.09-5.34-7.2.37-16.27,5.59-24.35,12.42-11.8,10.06-21.12,25.71-20,26.33a1.05,1.05,0,0,0,.87,0c4.1-1.37,21.49-13.91,27.95-19.38,2.24-2,10.31-9.81,13.42-11.55,2.48-1.24,6.71,5.59,6.21,7.08-.62-1.24-11.8,12.3-15.53,20.25a12.58,12.58,0,0,0-1.24,4.22c7.83-2.24,25.59-19.25,33.29-26.46.62-.62,1.24.37.87.75-10.81,11.8-31.05,32.54-38.51,32.54a4.33,4.33,0,0,1-2.11-.74c-1.74-1-4.1-3.6-4.1-5.84a20.6,20.6,0,0,1,1-4.6A52.7,52.7,0,0,1,354.12,106.75Z" transform="translate(-18.87 -25.76)"/><path class="cls-1" d="M384.18,123.52c-.12,1.49,1,2.36,3.73,2.36,9.07,0,31.8-17.27,44.35-27.7.37-.25,1.24.37.87.74-9.32,8.7-34,32.42-50.56,32.42-3.85,0-8.82-4.47-8.82-7.83a23.07,23.07,0,0,1,1.74-8.2c3-7.08,9.32-14.91,17.14-21.49,10.31-8.57,21.37-12.42,26.71-12.42,1.86,0,7.58,2.86,7.58,6.33,0,7.7-23.85,25.59-37.76,26C386.92,116.32,384.56,120.29,384.18,123.52Zm6.58-12.3c10.81-1.24,31.43-21.37,32.17-26.09C409.15,89.61,394.87,104.64,390.77,111.22Z" transform="translate(-18.87 -25.76)"/><path class="cls-1" d="M460.95,53c3.73-4.84,7.21-8.82,10.31-11.3,1.86-1.49,3.48-2.48,4.6-2.48,7-.37,11.92,6.83,9.56,5.47-4.35-2-12.42,9.69-17.89,16.4S457.1,75.2,450.89,84.27c-10.81,16.4-20.12,32.17-23.1,40.12,5.34.62,26-19.63,33.29-26.33a.57.57,0,0,1,.87.75c-6.09,7-27.7,29.56-35.15,32.3a4.36,4.36,0,0,1-4-.5,13.64,13.64,0,0,1-4.47-5,3,3,0,0,1-.37-1.86c0-3.73,5.71-15.78,20.87-39.5C446.54,72.22,454.49,61.41,460.95,53Z" transform="translate(-18.87 -25.76)"/><path class="cls-1" d="M616.47,32.47c-2.36-.12-4.84-.12-7.2-.12-64.1,0-109.93,27-111.92,43.6-1,7.95,12.42,12.3,13.42,12.79a.73.73,0,0,1-.5.12c-8.32-.12-22.48-4-22.24-14.91.75-26.83,58-46.58,115-46.58,2.73,0,5.34,0,8.07.12,26.21.87,51.8,7.45,61.36,12.67,1.74.87.75,1.61-.62,1.12C669.76,40.29,646.53,33.46,616.47,32.47Zm-52.79,32a160.21,160.21,0,0,1,14-15.65c3.6-3.48,6.46-5.59,8.7-5.59A11.54,11.54,0,0,1,597.22,52a3.68,3.68,0,0,0-3-1.49c-2.86,0-8.32,4.47-15.28,12.67-21.12,25.09-56,78.38-55,86.58,2.86-.12,5.71-1.24,9.44-3.6-.25,2.36-8.82,8.57-12.17,8.7-2.11.12-4.35-1.24-4.6-4.72C515.73,138.3,542.31,91.85,563.68,64.52Z" transform="translate(-18.87 -25.76)"/><path class="cls-1" d="M570.38,123.52c-.12,1.49,1,2.36,3.73,2.36,9.07,0,31.8-17.27,44.35-27.7.37-.25,1.24.37.87.74-9.32,8.7-34,32.42-50.56,32.42-3.85,0-8.82-4.47-8.82-7.83a23.07,23.07,0,0,1,1.74-8.2c3-7.08,9.32-14.91,17.14-21.49,10.31-8.57,21.37-12.42,26.71-12.42,1.86,0,7.58,2.86,7.58,6.33,0,7.7-23.85,25.59-37.76,26C573.12,116.32,570.76,120.29,570.38,123.52Zm6.58-12.3c10.81-1.24,31.43-21.37,32.17-26.09C595.35,89.61,581.07,104.64,577,111.22Z" transform="translate(-18.87 -25.76)"/><path class="cls-1" d="M641.31,106.75c-3.73,3.73-27.95,24.59-33.17,24.59A4,4,0,0,1,607,131c-2.24-1.12-5.47-5.84-5.47-8.32,0-13.54,28.45-41.24,51.3-41.24,4.72,0,10.93,2,10.93,7.83a10.13,10.13,0,0,1-2.36,5.84c-.25.12-.5,0-.37-.12a9.07,9.07,0,0,0,1.37-4.47c0-3.73-2.36-5.59-6.09-5.34-7.2.37-16.27,5.59-24.35,12.42-11.8,10.06-21.12,25.71-20,26.33a1.05,1.05,0,0,0,.87,0c4.1-1.37,21.49-13.91,27.95-19.38,2.24-2,10.31-9.81,13.42-11.55,2.48-1.24,6.71,5.59,6.21,7.08-.62-1.24-11.8,12.3-15.53,20.25a12.57,12.57,0,0,0-1.24,4.22c7.83-2.24,25.59-19.25,33.29-26.46.62-.62,1.24.37.87.75-10.81,11.8-31.05,32.54-38.51,32.54a4.33,4.33,0,0,1-2.11-.74c-1.74-1-4.1-3.6-4.1-5.84a20.61,20.61,0,0,1,1-4.6A52.71,52.71,0,0,1,641.31,106.75Z" transform="translate(-18.87 -25.76)"/><path class="cls-1" d="M706.4,120c2.73-1,5.47-2,8.2-2.86,2-.62,4-.25,2.24.37-4,1.62-7.95,3.35-11.8,5-15.9,27.7-36.4,58.88-60.25,65.21a15.43,15.43,0,0,1-4.1.5c-4.6,0-8.45-2.11-8.45-7.33a15.4,15.4,0,0,1,.87-4.84c5-15.78,29.44-35.9,58-49.56,2.73-4.72,13.17-23.48,13.17-23.48a62.8,62.8,0,0,0-5.34,4.22c-1.86,1.74-8.7,7.83-15.65,13.29s-14.41,10.81-17,10.81A2.77,2.77,0,0,1,665,131c-2.24-1.37-5.34-5.84-5.34-8.32,0-13.54,28.57-41.24,51.3-41.24,4.84,0,11.06,2,11.06,7.83,0,2.11-1.24,4.22-2.36,5.84-.25.12-.37,0-.25-.12a10.62,10.62,0,0,0,1.24-4.47c0-3.73-2.36-5.59-6.09-5.34-7.2.37-16.15,5.59-24.35,12.42-11.8,10.06-20.87,25.34-19.63,26.33.5.5,5.47-2.73,10.93-6.34a181.25,181.25,0,0,0,15.9-12C706,98.3,707.89,96.44,710,95.45c2.36-1.12,7.58,5.59,7.08,7.08-.37-.37-1-.75-3.11,3.48Zm-17.51,10.31c-22.61,11.92-39.87,26.09-48.57,42.23-1.37,2.48-2,4.22-2,5.47,0,1.74,1.12,2.36,2.73,2.36a14.15,14.15,0,0,0,5.84-1.74C661.43,170.85,676.22,150.85,688.89,130.35Z" transform="translate(-18.87 -25.76)"/><path class="cls-1" d="M758,53c3.73-4.84,7.21-8.82,10.31-11.3,1.86-1.49,3.48-2.48,4.6-2.48,7-.37,11.92,6.83,9.56,5.47-4.35-2-12.42,9.69-17.89,16.4S754.1,75.2,747.89,84.27c-10.81,16.4-20.12,32.17-23.1,40.12,5.34.62,26-19.63,33.29-26.33a.57.57,0,0,1,.87.75c-6.09,7-27.7,29.56-35.15,32.3a4.36,4.36,0,0,1-4-.5,13.64,13.64,0,0,1-4.47-5,3,3,0,0,1-.37-1.86c0-3.73,5.71-15.78,20.87-39.5C743.54,72.22,751.49,61.41,758,53Z" transform="translate(-18.87 -25.76)"/><path class="cls-1" d="M754.1,123.52c-.12,1.49,1,2.36,3.73,2.36,9.07,0,31.8-17.27,44.35-27.7.37-.25,1.24.37.87.74-9.32,8.7-34,32.42-50.56,32.42-3.85,0-8.82-4.47-8.82-7.83a23.06,23.06,0,0,1,1.74-8.2c3-7.08,9.32-14.91,17.14-21.49,10.31-8.57,21.37-12.42,26.71-12.42,1.86,0,7.58,2.86,7.58,6.33,0,7.7-23.85,25.59-37.76,26C756.83,116.32,754.47,120.29,754.1,123.52Zm6.58-12.3c10.81-1.24,31.43-21.37,32.17-26.09C779.07,89.61,764.78,104.64,760.68,111.22Z" transform="translate(-18.87 -25.76)"/></svg>