<svg id="Layer_1" data-name="Layer 1" xmlns="http://www.w3.org/2000/svg" viewBox="0 0 252.86 155.31"><defs><style>.cls-1{font-size:30.38px;font-family:Quicksand;}.cls-2{letter-spacing:-2px;}.cls-3{letter-spacing:1px;}.cls-4{fill:#333;fill-rule:evenodd;}</style></defs><title>Doing_Utah_Daily</title><text class="cls-1" transform="translate(0 149.08)">Doing U<tspan x="121.87" y="0">t</tspan><tspan x="133.11" y="0">ah </tspan><tspan class="cls-2" x="179.65" y="0">D</tspan><tspan x="198.76" y="0">a</tspan><tspan x="217.56" y="0">i</tspan><tspan class="cls-3" x="225.46" y="0">l</tspan><tspan x="235" y="0">y</tspan></text><path class="cls-4" d="M631.85,387l0.67-.82a8.38,8.38,0,0,0-1.26-2.31c-19.83-18.24-33.43-41.27-48.59-63.1-4-5.81-4-5.86-9.22-1.23-3.61,3.21-7.26,6.37-10.73,9.73-2.06,2-3.87,2.25-6,.24-0.72-.69-1.66-1.15-2.34-1.86-4.19-4.35-8.85-5.51-14.27-2.3-3.49,2.07-6.3.89-9.56-1.22-6-3.88-12.54-6.87-18.6-10.64a25.38,25.38,0,0,1-7.55-6.85c-7.21-10.58-14-21.44-21-32.17-1-1.48-2.16-2.82-3.5-4.56-19.6,21.35-83,110-86.44,121.22,9-6.61,17.34-14,25.74-21.25L446.42,386l33.77-11,39.39,21.71,0.08,0.26c7.47-6,14-11.06,20.33-16.46,3.1-2.66,5-2.41,7,1,1.76,3,3.95,5.69,6.46,9.25,5.2-5.11,10.36-9.53,14.7-14.64,3.82-4.5,7-4.6,11.85-1.56,8.72,5.49,17.85,10.33,26.82,15.42,1.37,0.78,2.81,1.41,4.22,2.12l1.06-1.05-14.9-21.64,0.93-1.16ZM480,286.09l11.18,19.57c-8.29-1.81-5.91,6.6-10.57,8.76L480,302.3,457.5,319l-1.06-1.08Zm109.75,58.05c-2.12-1-4.25-1.92-6.37-2.89s-4.24-2-7.18-3.37l1.36,8.31-1.21,1-11.79-10.26c3.78-2.93,6.55-5.34,9.61-7.29,1.1-.7,3.61-1,4.27-0.3,4.21,4.36,8.09,9,12.08,13.61Z" transform="translate(-389.63 -269.88)"/></svg>